<mxfile host="drawio-plugin" modified="2024-01-11T16:50:36.718Z" agent="5.0 (Windows NT 6.2; Win64; x64) AppleWebKit/537.36 (KHTML, like Gecko) Chrome/104.0.5112.102 Safari/537.36" etag="_8-XPY3aEtYQN-e0z-8u" version="20.5.3" type="embed"><diagram id="zFB5V-vT5PWB88v0Iewi" name="Page-1"><mxGraphModel dx="653" dy="563" grid="1" gridSize="10" guides="1" tooltips="1" connect="1" arrows="1" fold="1" page="1" pageScale="1" pageWidth="850" pageHeight="1100" math="0" shadow="0"><root><mxCell id="0"/><mxCell id="1" parent="0"/><mxCell id="15" value="«interface»&lt;br&gt;&lt;b&gt;HotDog&lt;/b&gt;" style="html=1;fillColor=#60a917;fontColor=#ffffff;strokeColor=#2D7600;" vertex="1" parent="1"><mxGeometry x="282.24" y="110" width="200" height="30" as="geometry"/></mxCell><mxCell id="16" value="&lt;p style=&quot;margin: 4px 0px 0px;&quot;&gt;+method: getPrice()&amp;nbsp; &amp;nbsp; &amp;nbsp; &amp;nbsp; &amp;nbsp; &amp;nbsp; int&lt;br&gt;&lt;/p&gt;" style="verticalAlign=top;align=left;overflow=fill;fontSize=12;fontFamily=Helvetica;html=1;fillColor=#6d8764;fontColor=#ffffff;strokeColor=#3A5431;" vertex="1" parent="1"><mxGeometry x="282.24" y="140" width="200" height="20" as="geometry"/></mxCell><mxCell id="19" value="&lt;p style=&quot;margin: 4px 0px 0px;&quot;&gt;+method: getIngredient&amp;nbsp; &amp;nbsp; &amp;nbsp; &amp;nbsp;String&lt;br&gt;&lt;br&gt;&lt;/p&gt;" style="verticalAlign=top;align=left;overflow=fill;fontSize=12;fontFamily=Helvetica;html=1;fillColor=#6d8764;fontColor=#ffffff;strokeColor=#3A5431;" vertex="1" parent="1"><mxGeometry x="282.24" y="160" width="200" height="20" as="geometry"/></mxCell><mxCell id="21" value="BasicHDog" style="swimlane;fontStyle=1;align=center;verticalAlign=top;childLayout=stackLayout;horizontal=1;startSize=26;horizontalStack=0;resizeParent=1;resizeParentMax=0;resizeLast=0;collapsible=1;marginBottom=0;fillColor=#1ba1e2;fontColor=#ffffff;strokeColor=#006EAF;" vertex="1" parent="1"><mxGeometry x="30" y="240" width="180" height="78" as="geometry"/></mxCell><mxCell id="24" value="+ method: getPrice()" style="text;strokeColor=#006EAF;fillColor=#6D8764;align=left;verticalAlign=top;spacingLeft=4;spacingRight=4;overflow=hidden;rotatable=0;points=[[0,0.5],[1,0.5]];portConstraint=eastwest;fontColor=#FFFFFF;" vertex="1" parent="21"><mxGeometry y="26" width="180" height="26" as="geometry"/></mxCell><mxCell id="35" value="+ method: getIngredient()" style="text;strokeColor=#006EAF;fillColor=#6D8764;align=left;verticalAlign=top;spacingLeft=4;spacingRight=4;overflow=hidden;rotatable=0;points=[[0,0.5],[1,0.5]];portConstraint=eastwest;fontColor=#FFFFFF;" vertex="1" parent="21"><mxGeometry y="52" width="180" height="26" as="geometry"/></mxCell><mxCell id="25" value="OnionHDog" style="swimlane;fontStyle=1;align=center;verticalAlign=top;childLayout=stackLayout;horizontal=1;startSize=26;horizontalStack=0;resizeParent=1;resizeParentMax=0;resizeLast=0;collapsible=1;marginBottom=0;fillColor=#1ba1e2;fontColor=#ffffff;strokeColor=#006EAF;" vertex="1" parent="1"><mxGeometry x="277.24" y="240" width="180" height="48" as="geometry"/></mxCell><mxCell id="27" value="+ field: decoratedHDog  HotDog" style="text;strokeColor=#432D57;fillColor=#76608a;align=left;verticalAlign=top;spacingLeft=4;spacingRight=4;overflow=hidden;rotatable=0;points=[[0,0.5],[1,0.5]];portConstraint=eastwest;fontColor=#ffffff;" vertex="1" parent="25"><mxGeometry y="26" width="180" height="22" as="geometry"/></mxCell><mxCell id="29" value="PigHDog" style="swimlane;fontStyle=1;align=center;verticalAlign=top;childLayout=stackLayout;horizontal=1;startSize=26;horizontalStack=0;resizeParent=1;resizeParentMax=0;resizeLast=0;collapsible=1;marginBottom=0;fillColor=#1ba1e2;fontColor=#ffffff;strokeColor=#006EAF;" vertex="1" parent="1"><mxGeometry x="492.24" y="240" width="180" height="48" as="geometry"/></mxCell><mxCell id="31" value="+ field: decoratedHDog  HotDog" style="text;strokeColor=#432D57;fillColor=#76608a;align=left;verticalAlign=top;spacingLeft=4;spacingRight=4;overflow=hidden;rotatable=0;points=[[0,0.5],[1,0.5]];portConstraint=eastwest;fontColor=#ffffff;" vertex="1" parent="29"><mxGeometry y="26" width="180" height="22" as="geometry"/></mxCell><mxCell id="41" value="" style="endArrow=block;dashed=1;endFill=0;endSize=12;html=1;rounded=0;entryX=0;entryY=0.5;entryDx=0;entryDy=0;exitX=0.432;exitY=-0.026;exitDx=0;exitDy=0;exitPerimeter=0;" edge="1" parent="1" target="16"><mxGeometry width="160" relative="1" as="geometry"><mxPoint x="140" y="237.97199999999998" as="sourcePoint"/><mxPoint x="271.74" y="150" as="targetPoint"/><Array as="points"/></mxGeometry></mxCell><mxCell id="42" value="" style="endArrow=block;dashed=1;endFill=0;endSize=12;html=1;rounded=0;entryX=1;entryY=0.5;entryDx=0;entryDy=0;exitX=0.5;exitY=0;exitDx=0;exitDy=0;" edge="1" parent="1" source="29" target="16"><mxGeometry width="160" relative="1" as="geometry"><mxPoint x="532.24" y="198.20000000000005" as="sourcePoint"/><mxPoint x="691.74" y="150" as="targetPoint"/><Array as="points"/></mxGeometry></mxCell><mxCell id="43" value="" style="endArrow=block;dashed=1;endFill=0;endSize=12;html=1;rounded=0;entryX=0.5;entryY=1;entryDx=0;entryDy=0;exitX=0.588;exitY=-0.02;exitDx=0;exitDy=0;exitPerimeter=0;" edge="1" parent="1" source="25" target="19"><mxGeometry width="160" relative="1" as="geometry"><mxPoint x="122.24000000000001" y="138.20000000000005" as="sourcePoint"/><mxPoint x="281.74" y="90" as="targetPoint"/><Array as="points"/></mxGeometry></mxCell><mxCell id="44" value="+ method: getIngredient()" style="text;strokeColor=#006EAF;fillColor=#6D8764;align=left;verticalAlign=top;spacingLeft=4;spacingRight=4;overflow=hidden;rotatable=0;points=[[0,0.5],[1,0.5]];portConstraint=eastwest;fontColor=#FFFFFF;" vertex="1" parent="1"><mxGeometry x="277.24" y="314" width="180" height="26" as="geometry"/></mxCell><mxCell id="45" value="+ method: getPrice()" style="text;strokeColor=#006EAF;fillColor=#6D8764;align=left;verticalAlign=top;spacingLeft=4;spacingRight=4;overflow=hidden;rotatable=0;points=[[0,0.5],[1,0.5]];portConstraint=eastwest;fontColor=#FFFFFF;" vertex="1" parent="1"><mxGeometry x="277.24" y="288" width="180" height="26" as="geometry"/></mxCell><mxCell id="58" value="+ method: getPrice()" style="text;strokeColor=#006EAF;fillColor=#6D8764;align=left;verticalAlign=top;spacingLeft=4;spacingRight=4;overflow=hidden;rotatable=0;points=[[0,0.5],[1,0.5]];portConstraint=eastwest;fontColor=#FFFFFF;" vertex="1" parent="1"><mxGeometry x="492.24" y="288" width="180" height="26" as="geometry"/></mxCell><mxCell id="59" value="+ method: getIngredient()" style="text;strokeColor=#006EAF;fillColor=#6D8764;align=left;verticalAlign=top;spacingLeft=4;spacingRight=4;overflow=hidden;rotatable=0;points=[[0,0.5],[1,0.5]];portConstraint=eastwest;fontColor=#FFFFFF;" vertex="1" parent="1"><mxGeometry x="492.24" y="314" width="180" height="26" as="geometry"/></mxCell></root></mxGraphModel></diagram></mxfile>